<svg width="578" height="122" viewBox="0 0 578 122" fill="none" xmlns="http://www.w3.org/2000/svg">
<path d="M179.238 25.2822C197.452 25.2822 210.822 33.4646 216.15 47.0337L203.846 53.1957C199.872 43.4737 191.542 37.6994 179.332 37.6994C164.119 37.6994 152.686 46.9404 152.686 60.8971C152.686 74.8539 164.119 84.0949 179.332 84.0949C191.538 84.0949 199.872 78.3206 203.846 68.5986L216.15 74.7605C210.822 88.3333 197.452 96.5121 179.238 96.5121C155.691 96.5121 138.156 81.3998 138.156 60.8971C138.156 40.3945 155.691 25.2822 179.238 25.2822Z" fill="white"/>
<path d="M266.113 26.3409L301.187 95.4498H285.78L277.739 79.3757H238.402L230.263 95.4498H215.051L250.125 26.3409H266.11H266.113ZM244.41 67.3462H271.637L258.072 40.3012L244.41 67.3462Z" fill="white"/>
<path d="M310.747 70.5222C318.691 81.1091 331.288 84.382 341.558 84.382C353.183 84.382 361.42 80.9189 361.42 75.3347C361.42 68.7888 355.705 68.211 336.129 66.0937C319.078 64.1701 305.997 60.994 305.997 47.3244C305.997 33.6548 318.883 25.2822 338.65 25.2822C354.152 25.2822 368.103 30.7694 374.403 39.0451L364.91 48.0924C359.581 41.2594 349.697 37.3118 337.877 37.3118C325.476 37.3118 319.858 41.2558 319.858 45.8782C319.858 50.8845 324.507 52.0401 342.144 54.0605C361.908 56.2748 375.859 58.8731 375.859 73.7916C375.859 88.7101 360.647 96.5085 340.977 96.5085C324.41 96.5085 307.937 90.1563 301.156 80.4344L310.751 70.5186L310.747 70.5222Z" fill="white"/>
<path d="M425.977 38.5678V95.4534H411.635V38.5678H380.922V26.3445H456.69V38.5678H425.977Z" fill="white"/>
<path d="M523.161 26.3409L558.234 95.4498H542.831L534.789 79.3757H495.453L487.314 95.4498H472.102L507.175 26.3409H523.161ZM501.457 67.3462H528.684L515.119 40.3012L501.46 67.3462H501.457Z" fill="white"/>
<path d="M577.998 95.4498H563.758V26.3409H577.998V95.4498Z" fill="white"/>
<path d="M98.7874 81.7768C99.0511 82.0028 99.0511 82.4084 98.7874 82.6345L76.7548 101.551C66.116 110.684 50.0656 110.688 39.4268 101.551L18.0119 83.1656C15.1544 80.7145 13.5144 77.1472 13.5144 73.397V48.4012C13.5144 44.651 15.1544 41.0873 18.0119 38.6326L39.4268 20.2474C44.748 15.6789 51.4167 13.3964 58.089 13.3964C64.7613 13.3964 71.4336 15.6789 76.7512 20.2474L98.8127 39.1889C99.0764 39.415 99.0764 39.8205 98.8127 40.0466L85.1466 51.7819L74.5114 60.9117L73.4782 61.7981L73.3446 61.9129L58.0854 75.0119L41.6485 60.9009L58.0854 46.7899L68.1065 55.4065L78.4491 46.5279L65.78 35.6504C61.3619 31.857 54.8125 31.857 50.3944 35.6504L30.876 52.4099C28.3906 54.5452 26.9637 57.6387 26.9637 60.9045C26.9637 64.1703 28.3906 67.2638 30.876 69.3991L50.3944 86.1586C54.7799 89.9268 61.3944 89.9233 65.78 86.1586L82.1085 72.1409L95.1966 60.9045L101.006 55.9161L102.003 55.0584L107.851 50.0377C109.867 48.3079 111.438 46.0793 112.193 43.542C113.761 38.2701 112.034 32.8009 108.05 29.3808L85.5873 10.0947C69.9091 -3.36671 46.2653 -3.36312 30.5834 10.0947L9.16852 28.48C3.34517 33.4791 0 40.7428 0 48.3976V73.3934C0 81.0518 3.34518 88.3155 9.17575 93.3218L30.5906 111.707C38.4298 118.44 48.2594 121.802 58.0926 121.802C67.9258 121.802 77.7554 118.436 85.5946 111.707L108.057 92.421C112.042 89.0009 113.768 83.5281 112.201 78.2598C111.446 75.7189 109.874 73.4939 107.858 71.7641L101.612 66.4025L91.2517 75.2954L98.791 81.7768H98.7874Z" fill="white"/>
</svg>
