<svg width="275" height="300" viewBox="0 0 275 300" fill="none" xmlns="http://www.w3.org/2000/svg">
<path d="M263.758 72.63L208.538 24.775C189.484 8.26 165.576 0 141.675 0C117.775 0 93.8718 8.2575 74.8077 24.7775L22.1653 70.4C8.07984 82.6075 0 100.318 0 118.988V181.012C0 199.682 8.07985 217.392 22.1678 229.602L74.8102 275.223C93.2435 291.2 116.989 300 141.675 300C166.361 300 190.107 291.203 208.54 275.225L263.76 227.37C273.363 219.045 277.225 205.715 273.598 193.405C271.88 187.577 268.308 182.188 263.267 177.82L248.65 165.152L224.917 185.723L242.46 200.95C243.016 201.432 243.335 202.132 243.335 202.87C243.335 203.607 243.016 204.31 242.458 204.792L188.297 251.73C175.009 263.245 158.339 269.005 141.675 269.005C125.007 269.005 108.344 263.247 95.0535 251.73L42.4086 206.107C35.134 199.803 30.9607 190.652 30.9607 181.01V118.985C30.9607 109.34 35.134 100.192 42.4086 93.8875L95.0535 48.2625C107.91 37.1225 124.466 30.9875 141.675 30.9875C158.884 30.9875 175.443 37.1225 188.297 48.265L242.532 95.2675C243.088 95.75 243.41 96.45 243.41 97.19C243.41 97.93 243.091 98.63 242.532 99.1125L141.675 186.518L99.5359 149.997L141.673 113.478L166.306 134.857L190 114.325L159.844 88.1925C149.486 79.215 133.862 79.215 123.504 88.1925L75.5182 129.78C69.6547 134.86 66.2916 142.227 66.2916 150C66.2916 157.773 69.6547 165.14 75.5158 170.217L123.501 211.805C133.862 220.785 149.486 220.787 159.844 211.805L263.267 122.173C268.308 117.805 271.88 112.415 273.595 106.588C277.22 94.2825 273.358 80.9525 263.758 72.6275V72.63Z" fill="white"/>
</svg>
